<svg xmlns="http://www.w3.org/2000/svg" xmlns:xlink="http://www.w3.org/1999/xlink" version="1.1" width="116.41619873046875" height="27.25" viewBox="0 0.4500000476837158 116.41619873046875 27.25">
  <!-- Exported by Scratch - http://scratch.mit.edu/ -->
  <path id="ID0.9540317603386939" fill="#131313" stroke="#131313" stroke-width="2" d="M 20.075 1.45 C 23.558 1.45 26.714 2.865 29 5.15 C 31.285 7.436 32.7 10.592 32.7 14.075 C 32.7 17.558 31.285 20.714 29 23 C 26.714 25.285 23.558 26.7 20.075 26.7 C 16.592 26.7 13.436 25.285 11.15 23 C 8.865 20.714 7.45 17.558 7.45 14.075 C 7.45 10.592 8.865 7.436 11.15 5.15 C 13.436 2.865 16.592 1.45 20.075 1.45 Z "/>
  <path id="ID0.9504340006969869" fill="#131313" stroke="none" d="M 1 9.75 L 40 9.75 L 40 18.25 L 1 18.25 L 1 9.75 Z " stroke-width="1"/>
  <path id="ID0.25150701915845275" fill="#131313" stroke="#131313" stroke-width="2" stroke-linecap="round" d="M 40.95 17.15 L 40.95 10.8 L 78.55 14.15 L 40.95 17.15 Z "/>
  <path id="ID0.06654103333130479" fill="none" stroke="#FF0000" stroke-width="1.8910302360179105" stroke-linecap="round" d="M 1.7915 14.15 L 115.4162 14.15 "/>
</svg>