<svg xmlns="http://www.w3.org/2000/svg" xmlns:xlink="http://www.w3.org/1999/xlink" version="1.1" width="439.111079454422" height="239.989009141922" viewBox="0.6323784589767456 -3.2772605419158936 439.111079454422 239.989009141922">
  <!-- Exported by Scratch - http://scratch.mit.edu/ -->
  <path id="ID0.3324238723143935" fill="#FF0000" stroke="none" d="M 269.4991 0.564 L 310.4726 0.564 L 310.4726 17.8497 L 269.4991 17.8497 L 269.4991 0.564 Z " stroke-width="1.280420184135437"/>
  <path id="ID0.8691576905548573" fill="none" stroke="#000000" stroke-width="7.682521104812622" stroke-linecap="round" d="M 196.5152 211.6138 C 196.8007 219.2566 192.9274 228.2003 186.2718 231.4603 C 179.2436 234.929 171.1629 231.2759 164.5047 228.2592 C 158.2396 225.4346 156.5148 216.7367 150.42 214.1746 C 145.8182 212.2169 140.8246 214.6074 136.3354 216.0953 C 130.6555 217.9749 126.256 223.6997 120.3302 224.418 C 115.6925 224.998 110.9344 223.7202 107.526 221.2169 L 94.0816 203.9313 L 28.1399 117.5029 L 8.2934 90.6141 C 1.5494 81.3694 4.5776 68.1235 10.8542 60.5242 C 16.1129 54.1669 27.4446 54.8379 35.1822 56.6829 L 47.3462 69.4871 L 82.5578 118.7833 C 94.2826 135.1983 87.9842 126.2034 91.5207 129.0267 L 101.1239 134.1484 C 104.3736 135.9089 115.7527 132.2508 119.69 127.1061 L 120.9704 108.54 C 121.3968 102.3568 120.5658 84.5065 122.2508 72.6882 C 123.384 64.5831 125.375 56.1055 128.6529 48.3602 L 141.4571 30.4343 C 145.6479 23.9874 163.9259 13.7159 176.6687 9.9476 L 214.4411 8.6672 L 328.3985 9.3074 L 379.6153 8.6672 C 396.6628 8.4559 401.6372 8.1076 412.266 11.228 C 419.6527 13.3804 428.3673 17.118 432.1125 24.0322 C 436.3404 31.8402 437.3993 42.7597 433.3929 50.9211 L 409.7051 70.7676 L 297.6684 152.0742 L 263.097 176.4022 C 251.5848 184.5034 224.8931 176.6929 211.24 165.5187 C 198.4921 155.0756 193.4908 136.3878 192.6739 120.0637 C 192.2795 112.1751 199.948 104.0905 207.3987 101.4976 L 248.3722 101.4976 L 312.3932 101.4976 C 333.6725 101.4951 334.8966 90.9444 342.4831 81.6511 L 343.1233 63.7253 C 343.2705 58.0888 334.3793 47.4588 326.4778 43.8787 L 295.1075 42.5983 L 213.1606 43.2385 C 185.8762 43.4396 176.7237 46.7866 163.2242 57.3232 C 152.2574 65.6075 149.5097 81.4975 146.5788 94.4553 L 148.4994 118.7833 C 149.0794 127.1803 156.7095 148.1664 163.2242 161.6774 L 183.711 192.4075 C 190.4959 202.1822 196.2207 203.9389 196.5152 211.6138 Z "/>
</svg>