<svg version="1.1" xmlns="http://www.w3.org/2000/svg" xmlns:xlink="http://www.w3.org/1999/xlink" width="228.06523" height="218.98801" viewBox="0,0,228.06523,218.98801"><g transform="translate(-125.96738,-70.50599)"><g data-paper-data="{&quot;isPaintingLayer&quot;:true}" fill-rule="nonzero" stroke-linejoin="miter" stroke-miterlimit="10" stroke-dasharray="" stroke-dashoffset="0" style="mix-blend-mode: normal"><path d="M125.96739,289.49401v-218.98801h228.06523v218.98801z" fill="#000000" stroke="none" stroke-width="0" stroke-linecap="butt"/><path d="M189.25,270.75l-1.75,-1.25l6,-7z" fill="#aeaeae" stroke="#aeaeae" stroke-width="2" stroke-linecap="round"/><path d="M170.9866,255.9911l-1.5402,-1.5009l6.9922,-6.0091z" fill="#aeaeae" stroke="#aeaeae" stroke-width="2" stroke-linecap="round"/><path d="M155.75099,239.0757l-1.2339,-1.7614l7.9885,-4.6026z" fill="#aeaeae" stroke="#aeaeae" stroke-width="2" stroke-linecap="round"/><path d="M137.663,195.8694l-0.1606,-2.1446l9.2187,0.1256z" fill="#aeaeae" stroke="#aeaeae" stroke-width="2" stroke-linecap="round"/><path d="M142.0924,150.4119l0.7949,-1.9983l8.2325,4.1504z" fill="#aeaeae" stroke="#aeaeae" stroke-width="2" stroke-linecap="round"/><path d="M163.1342,109.8863l1.6004,-1.4366l5.529,7.3777z" fill="#aeaeae" stroke="#aeaeae" stroke-width="2" stroke-linecap="round"/><path d="M181.0306,94.3533l1.8366,-1.1189l4.0832,8.266z" fill="#aeaeae" stroke="#aeaeae" stroke-width="2" stroke-linecap="round"/><path d="M201.2721,82.4591l2.0461,-0.6621l2.0529,8.9881z" fill="#aeaeae" stroke="#aeaeae" stroke-width="2" stroke-linecap="round"/><path d="M245.9418,75.5897l2.1467,0.1305l-1.3694,9.1172z" fill="#aeaeae" stroke="#aeaeae" stroke-width="2" stroke-linecap="round"/><path d="M270.6296,79.9541l2.008,0.7701l-4.0483,8.2832z" fill="#aeaeae" stroke="#aeaeae" stroke-width="2" stroke-linecap="round"/><path d="M291.1187,88.3063l1.8707,1.0608l-5.2378,7.5872z" fill="#aeaeae" stroke="#aeaeae" stroke-width="2" stroke-linecap="round"/><path d="M327.11969,120.0811l1.098,1.8492l-8.3119,3.989z" fill="#aeaeae" stroke="#aeaeae" stroke-width="2" stroke-linecap="round"/><path d="M344.3807,163.5271l0.3112,2.1279l-9.2047,0.5236z" fill="#aeaeae" stroke="#aeaeae" stroke-width="2" stroke-linecap="round"/><path d="M179.0718,263.567l-0.9638,-0.7676l3.6424,-3.8253z" fill="#aeaeae" stroke="#aeaeae" stroke-width="1.14584" stroke-linecap="round"/><path d="M161.7543,247.1293l-0.7648,-0.966l4.4146,-2.9002z" fill="#aeaeae" stroke="#aeaeae" stroke-width="1.14584" stroke-linecap="round"/><path d="M149.213,228.4628l-0.5955,-1.0786l4.8315,-2.1347z" fill="#aeaeae" stroke="#aeaeae" stroke-width="1.14584" stroke-linecap="round"/><path d="M137.4133,183.7726l0.0217,-1.2319l5.2524,0.5588z" fill="#aeaeae" stroke="#aeaeae" stroke-width="1.14584" stroke-linecap="round"/><path d="M139.50519,160.7611l0.3235,-1.1889l4.9544,1.8315z" fill="#aeaeae" stroke="#aeaeae" stroke-width="1.14584" stroke-linecap="round"/><path d="M145.948,139.0223l0.6081,-1.0716l4.3459,3.0022z" fill="#aeaeae" stroke="#aeaeae" stroke-width="1.14584" stroke-linecap="round"/><path d="M172.0838,101.158l1.0023,-0.7167l2.6811,4.551z" fill="#aeaeae" stroke="#aeaeae" stroke-width="1.14584" stroke-linecap="round"/><path d="M190.6136,88.4897l1.1171,-0.5198l1.797,4.967z" fill="#aeaeae" stroke="#aeaeae" stroke-width="1.14584" stroke-linecap="round"/><path d="M212.9134,79.741l1.208,-0.2424l0.5779,5.2503z" fill="#aeaeae" stroke="#aeaeae" stroke-width="1.14584" stroke-linecap="round"/><path d="M258.8615,77.4747l1.2124,0.2196l-1.3964,5.0941z" fill="#aeaeae" stroke="#aeaeae" stroke-width="1.14584" stroke-linecap="round"/><path d="M302.3101,95.2752l0.9704,0.7592l-3.6092,3.8567z" fill="#aeaeae" stroke="#aeaeae" stroke-width="1.14584" stroke-linecap="round"/><path d="M320.3243,111.169l0.752,0.976l-4.4524,2.8419z" fill="#aeaeae" stroke="#aeaeae" stroke-width="1.14584" stroke-linecap="round"/><path d="M333.3652,131.1433l0.5026,1.125l-4.9941,1.7203z" fill="#aeaeae" stroke="#aeaeae" stroke-width="1.14584" stroke-linecap="round"/><text transform="translate(198.31804,253.10603) scale(0.63173,0.63173)" font-size="22" xml:space="preserve" fill="#aeaeae" fill-rule="nonzero" stroke="none" stroke-width="1" stroke-linecap="butt" stroke-linejoin="miter" stroke-miterlimit="10" stroke-dasharray="" stroke-dashoffset="0" font-family="Sans Serif" font-weight="400" text-anchor="start" style="mix-blend-mode: normal"><tspan x="0" dy="0">0</tspan></text><text transform="translate(172.11907,227.20655) scale(0.63173,0.63173)" font-size="22" xml:space="preserve" fill="#aeaeae" fill-rule="nonzero" stroke="none" stroke-width="1" stroke-linecap="butt" stroke-linejoin="miter" stroke-miterlimit="10" stroke-dasharray="" stroke-dashoffset="0" font-family="Sans Serif" font-weight="400" text-anchor="start" style="mix-blend-mode: normal"><tspan x="0" dy="0">10</tspan></text><text transform="translate(157.21804,197.05964) scale(0.63173,0.63173)" font-size="22" xml:space="preserve" fill="#aeaeae" fill-rule="nonzero" stroke="none" stroke-width="1" stroke-linecap="butt" stroke-linejoin="miter" stroke-miterlimit="10" stroke-dasharray="" stroke-dashoffset="0" font-family="Sans Serif" font-weight="400" text-anchor="start" style="mix-blend-mode: normal"><tspan x="0" dy="0">20</tspan></text><text transform="translate(160.26855,161.86047) scale(0.63173,0.63173)" font-size="22" xml:space="preserve" fill="#aeaeae" fill-rule="nonzero" stroke="none" stroke-width="1" stroke-linecap="butt" stroke-linejoin="miter" stroke-miterlimit="10" stroke-dasharray="" stroke-dashoffset="0" font-family="Sans Serif" font-weight="400" text-anchor="start" style="mix-blend-mode: normal"><tspan x="0" dy="0">30</tspan></text><text transform="translate(174.51598,132.76408) scale(0.63173,0.63173)" font-size="22" xml:space="preserve" fill="#aeaeae" fill-rule="nonzero" stroke="none" stroke-width="1" stroke-linecap="butt" stroke-linejoin="miter" stroke-miterlimit="10" stroke-dasharray="" stroke-dashoffset="0" font-family="Sans Serif" font-weight="400" text-anchor="start" style="mix-blend-mode: normal"><tspan x="0" dy="0">40</tspan></text><text transform="translate(202.66855,110.51459) scale(0.63173,0.63173)" font-size="22" xml:space="preserve" fill="#aeaeae" fill-rule="nonzero" stroke="none" stroke-width="1" stroke-linecap="butt" stroke-linejoin="miter" stroke-miterlimit="10" stroke-dasharray="" stroke-dashoffset="0" font-family="Sans Serif" font-weight="400" text-anchor="start" style="mix-blend-mode: normal"><tspan x="0" dy="0">50</tspan></text><text transform="translate(239.50114,104.57395) scale(0.63173,0.63173)" font-size="22" xml:space="preserve" fill="#aeaeae" fill-rule="nonzero" stroke="none" stroke-width="1" stroke-linecap="butt" stroke-linejoin="miter" stroke-miterlimit="10" stroke-dasharray="" stroke-dashoffset="0" font-family="Sans Serif" font-weight="400" text-anchor="start" style="mix-blend-mode: normal"><tspan x="0" dy="0">60</tspan></text><text transform="translate(271.19414,116.18771) scale(0.63173,0.63173)" font-size="22" xml:space="preserve" fill="#aeaeae" fill-rule="nonzero" stroke="none" stroke-width="1" stroke-linecap="butt" stroke-linejoin="miter" stroke-miterlimit="10" stroke-dasharray="" stroke-dashoffset="0" font-family="Sans Serif" font-weight="400" text-anchor="start" style="mix-blend-mode: normal"><tspan x="0" dy="0">70</tspan></text><text transform="translate(293.53715,140.26746) scale(0.63173,0.63173)" font-size="22" xml:space="preserve" fill="#aeaeae" fill-rule="nonzero" stroke="none" stroke-width="1" stroke-linecap="butt" stroke-linejoin="miter" stroke-miterlimit="10" stroke-dasharray="" stroke-dashoffset="0" font-family="Sans Serif" font-weight="400" text-anchor="start" style="mix-blend-mode: normal"><tspan x="0" dy="0">80</tspan></text><text transform="translate(307.24208,173.30995) scale(0.63173,0.63173)" font-size="22" xml:space="preserve" fill="#aeaeae" fill-rule="nonzero" stroke="none" stroke-width="1" stroke-linecap="butt" stroke-linejoin="miter" stroke-miterlimit="10" stroke-dasharray="" stroke-dashoffset="0" font-family="Sans Serif" font-weight="400" text-anchor="start" style="mix-blend-mode: normal"><tspan x="0" dy="0">90</tspan></text><text transform="translate(229.9126,127.3849) scale(0.38129,0.38128)" font-size="22" xml:space="preserve" fill="#928f8f" fill-rule="nonzero" stroke="none" stroke-width="1" stroke-linecap="butt" stroke-linejoin="miter" stroke-miterlimit="10" stroke-dasharray="" stroke-dashoffset="0" font-family="Sans Serif" font-weight="400" text-anchor="start" style="mix-blend-mode: normal"><tspan x="0" dy="0">m/s</tspan></text><path d="M143.9324,218.6028l-0.7771,-2.0053l8.8572,-2.5595z" fill="#aeaeae" stroke="#aeaeae" stroke-width="2" stroke-linecap="round"/><path d="M139.4851,207.3427l-0.3245,-1.1886l5.1985,-0.9358z" fill="#aeaeae" stroke="#aeaeae" stroke-width="1.14584" stroke-linecap="round"/><path d="M137.2695,172.7412l0.3173,-2.127l8.963,2.1597z" fill="#aeaeae" stroke="#aeaeae" stroke-width="2" stroke-linecap="round"/><path d="M150.7726,129.3036l1.1607,-1.8105l7.292,5.6416z" fill="#aeaeae" stroke="#aeaeae" stroke-width="2" stroke-linecap="round"/><path d="M156.6865,119.1272l0.7487,-0.9785l3.8952,3.5676z" fill="#aeaeae" stroke="#aeaeae" stroke-width="1.14584" stroke-linecap="round"/><path d="M223.8862,77.1158l2.145,-0.1545l-0.152,9.2183z" fill="#aeaeae" stroke="#aeaeae" stroke-width="2" stroke-linecap="round"/><path d="M235.9274,76.3324l1.2297,-0.0757l-0.142,5.2801z" fill="#aeaeae" stroke="#aeaeae" stroke-width="1.14584" stroke-linecap="round"/><path d="M281.7462,84.0138l1.1133,0.5278l-2.6751,4.5545z" fill="#aeaeae" stroke="#aeaeae" stroke-width="1.14584" stroke-linecap="round"/><path d="M310.8225,101.9844l1.5695,1.4703l-6.8724,6.1457z" fill="#aeaeae" stroke="#aeaeae" stroke-width="2" stroke-linecap="round"/><path d="M337.7884,141.1163l0.713,2.029l-8.9341,2.2767z" fill="#aeaeae" stroke="#aeaeae" stroke-width="2" stroke-linecap="round"/><path d="M341.4487,152.8069l0.3457,1.1826l-5.1809,1.0286z" fill="#aeaeae" stroke="#aeaeae" stroke-width="1.14584" stroke-linecap="round"/><path d="M345.8445,176.5401l0.0255,1.2319l-5.2699,-0.3573z" fill="#aeaeae" stroke="#aeaeae" stroke-width="1.14584" stroke-linecap="round"/></g></g></svg>