<svg version="1.1" xmlns="http://www.w3.org/2000/svg" xmlns:xlink="http://www.w3.org/1999/xlink" width="224" height="300.04504" viewBox="0,0,224,300.04504"><g transform="translate(-125.5,-65.00002)"><g data-paper-data="{&quot;isPaintingLayer&quot;:true}" fill-rule="nonzero" stroke-linejoin="miter" stroke-miterlimit="10" stroke-dasharray="" stroke-dashoffset="0" style="mix-blend-mode: normal"><path d="M125.5,365.04506v-300.04504h224v300.04504z" fill="#000000" stroke="none" stroke-width="0" stroke-linecap="butt"/><path d="M152.17133,245.4632l-1.24984,-1.75017l7.94636,-4.67488z" fill="#aeaeae" stroke="#aeaeae" stroke-width="2" stroke-linecap="round"/><path d="M131.67898,192.51511l-0.11377,-2.14754l9.21381,0.32704z" fill="#aeaeae" stroke="#aeaeae" stroke-width="2" stroke-linecap="round"/><path d="M141.21319,137.49327l0.95363,-1.92752l7.87047,4.80164z" fill="#aeaeae" stroke="#aeaeae" stroke-width="2" stroke-linecap="round"/><path d="M179.80973,93.31863l1.84739,-1.10098l4.00247,8.30553z" fill="#aeaeae" stroke="#aeaeae" stroke-width="2" stroke-linecap="round"/><path d="M236.16838,76.75619l2.14876,0.08844l-1.19094,9.14235z" fill="#aeaeae" stroke="#aeaeae" stroke-width="2" stroke-linecap="round"/><path d="M292.09729,92.4987l1.77697,1.21154l-5.84588,7.12922z" fill="#aeaeae" stroke="#aeaeae" stroke-width="2" stroke-linecap="round"/><path d="M331.4752,136.16058l0.82528,1.98594l-8.79269,2.77275z" fill="#aeaeae" stroke="#aeaeae" stroke-width="2" stroke-linecap="round"/><path d="M341.34514,193.32173l-0.27897,2.13249l-9.0005,-1.99796z" fill="#aeaeae" stroke="#cc0000" stroke-width="2" stroke-linecap="round"/><path d="M138.5696,219.86113l-0.40906,-1.16226l5.11777,-1.30698z" fill="#aeaeae" stroke="#aeaeae" stroke-width="1.14584" stroke-linecap="round"/><path d="M144.40072,232.98081l-0.56429,-1.09529l4.89079,-1.99517z" fill="#aeaeae" stroke="#aeaeae" stroke-width="1.14584" stroke-linecap="round"/><path d="M133.73144,206.08956l-0.23614,-1.20924l5.2532,-0.55082z" fill="#aeaeae" stroke="#aeaeae" stroke-width="1.14584" stroke-linecap="round"/><path d="M130.76642,177.83332l0.10595,-1.22758l5.20184,0.91708z" fill="#aeaeae" stroke="#aeaeae" stroke-width="1.14584" stroke-linecap="round"/><path d="M132.31481,163.18801l0.32564,-1.18822l4.95115,1.84008z" fill="#aeaeae" stroke="#aeaeae" stroke-width="1.14584" stroke-linecap="round"/><path d="M136.18409,149.18831l0.41999,-1.15832l4.78736,2.23199z" fill="#aeaeae" stroke="#aeaeae" stroke-width="1.14584" stroke-linecap="round"/><path d="M148.99731,122.97405l0.75745,-0.97176l3.86304,3.6024z" fill="#aeaeae" stroke="#aeaeae" stroke-width="1.14584" stroke-linecap="round"/><path d="M158.89824,111.09399l0.92058,-0.81893l3.14867,4.24092z" fill="#aeaeae" stroke="#aeaeae" stroke-width="1.14584" stroke-linecap="round"/><path d="M168.94269,101.52374l0.99067,-0.73258l2.7533,4.50771z" fill="#aeaeae" stroke="#aeaeae" stroke-width="1.14584" stroke-linecap="round"/><path d="M192.92867,85.91151l1.13611,-0.47679l1.60631,5.03177z" fill="#aeaeae" stroke="#aeaeae" stroke-width="1.14584" stroke-linecap="round"/><path d="M207.26406,81.22844l1.19277,-0.30858l0.86623,5.21057z" fill="#aeaeae" stroke="#aeaeae" stroke-width="1.14584" stroke-linecap="round"/><path d="M221.58763,78.21465l1.22382,-0.14303l0.1475,5.27996z" fill="#aeaeae" stroke="#aeaeae" stroke-width="1.14584" stroke-linecap="round"/><path d="M251.57096,78.49988l1.20581,0.25312l-1.53681,5.0534z" fill="#aeaeae" stroke="#aeaeae" stroke-width="1.14584" stroke-linecap="round"/><path d="M266.25842,81.80046l1.14492,0.45518l-2.3768,4.71703z" fill="#aeaeae" stroke="#aeaeae" stroke-width="1.14584" stroke-linecap="round"/><path d="M280.1182,86.94475l1.10516,0.54461l-2.74363,4.51353z" fill="#aeaeae" stroke="#aeaeae" stroke-width="1.14584" stroke-linecap="round"/><path d="M304.11801,101.81254l0.97007,0.7597l-3.61086,3.855z" fill="#aeaeae" stroke="#aeaeae" stroke-width="1.14584" stroke-linecap="round"/><path d="M314.96681,112.44848l0.7841,0.95037l-4.35497,2.989z" fill="#aeaeae" stroke="#aeaeae" stroke-width="1.14584" stroke-linecap="round"/><path d="M323.67471,123.8279l0.66273,1.03867l-4.6863,2.43696z" fill="#aeaeae" stroke="#aeaeae" stroke-width="1.14584" stroke-linecap="round"/><path d="M336.131,150.34652l0.35852,1.17869l-5.16941,1.08488z" fill="#aeaeae" stroke="#cc0000" stroke-width="1.14584" stroke-linecap="round"/><path d="M339.82319,165.09643l0.2184,1.21266l-5.26072,0.474z" fill="#aeaeae" stroke="#cc0000" stroke-width="1.14584" stroke-linecap="round"/><path d="M341.05823,179.25093l0.02647,1.23179l-5.27022,-0.35305z" fill="#aeaeae" stroke="#cc0000" stroke-width="1.14584" stroke-linecap="round"/><path d="M338.09861,208.0936l-0.25874,1.20463l-5.04622,-1.56055z" fill="#aeaeae" stroke="#cc0000" stroke-width="1.14584" stroke-linecap="round"/><path d="M332.97609,222.28075l-0.42237,1.15746l-4.78278,-2.24159z" fill="#aeaeae" stroke="#cc0000" stroke-width="1.14584" stroke-linecap="round"/><text transform="translate(165.55194,237.67952) rotate(0.50536) scale(1,1)" font-size="22" xml:space="preserve" fill="#aeaeae" fill-rule="nonzero" stroke="none" stroke-width="1" stroke-linecap="butt" stroke-linejoin="miter" stroke-miterlimit="10" stroke-dasharray="" stroke-dashoffset="0" font-family="Sans Serif" font-weight="400" text-anchor="start" style="mix-blend-mode: normal"><tspan x="0" dy="0">0</tspan></text><text transform="translate(148.55135,197.33855) rotate(0.24609) scale(1,1)" font-size="22" xml:space="preserve" fill="#aeaeae" fill-rule="nonzero" stroke="none" stroke-width="1" stroke-linecap="butt" stroke-linejoin="miter" stroke-miterlimit="10" stroke-dasharray="" stroke-dashoffset="0" font-family="Sans Serif" font-weight="400" text-anchor="start" style="mix-blend-mode: normal"><tspan x="0" dy="0">1</tspan></text><text transform="translate(156.73658,154.6471) rotate(0.0785) scale(1,1)" font-size="22" xml:space="preserve" fill="#aeaeae" fill-rule="nonzero" stroke="none" stroke-width="1" stroke-linecap="butt" stroke-linejoin="miter" stroke-miterlimit="10" stroke-dasharray="" stroke-dashoffset="0" font-family="Sans Serif" font-weight="400" text-anchor="start" style="mix-blend-mode: normal"><tspan x="0" dy="0">2</tspan></text><text transform="translate(189.18924,124.40098) rotate(0.96233) scale(1,1)" font-size="22" xml:space="preserve" fill="#aeaeae" fill-rule="nonzero" stroke="none" stroke-width="1" stroke-linecap="butt" stroke-linejoin="miter" stroke-miterlimit="10" stroke-dasharray="" stroke-dashoffset="0" font-family="Sans Serif" font-weight="400" text-anchor="start" style="mix-blend-mode: normal"><tspan x="0" dy="0">3</tspan></text><text transform="translate(229.75585,113.75098) rotate(0.9523) scale(1,1)" font-size="22" xml:space="preserve" fill="#aeaeae" fill-rule="nonzero" stroke="none" stroke-width="1" stroke-linecap="butt" stroke-linejoin="miter" stroke-miterlimit="10" stroke-dasharray="" stroke-dashoffset="0" font-family="Sans Serif" font-weight="400" text-anchor="start" style="mix-blend-mode: normal"><tspan x="0" dy="0">4</tspan></text><text transform="translate(270.98625,123.50514) rotate(1.24972) scale(1,1)" font-size="22" xml:space="preserve" fill="#aeaeae" fill-rule="nonzero" stroke="none" stroke-width="1" stroke-linecap="butt" stroke-linejoin="miter" stroke-miterlimit="10" stroke-dasharray="" stroke-dashoffset="0" font-family="Sans Serif" font-weight="400" text-anchor="start" style="mix-blend-mode: normal"><tspan x="0" dy="0">5</tspan></text><text transform="translate(302.16318,157.01298) rotate(0.81363) scale(1,1)" font-size="22" xml:space="preserve" fill="#aeaeae" fill-rule="nonzero" stroke="none" stroke-width="1" stroke-linecap="butt" stroke-linejoin="miter" stroke-miterlimit="10" stroke-dasharray="" stroke-dashoffset="0" font-family="Sans Serif" font-weight="400" text-anchor="start" style="mix-blend-mode: normal"><tspan x="0" dy="0">6</tspan></text><text transform="translate(309.78282,199.8066) rotate(1.46808) scale(1,1)" font-size="22" xml:space="preserve" fill="#cc0000" fill-rule="nonzero" stroke="none" stroke-width="1" stroke-linecap="butt" stroke-linejoin="miter" stroke-miterlimit="10" stroke-dasharray="" stroke-dashoffset="0" font-family="Sans Serif" font-weight="400" text-anchor="start" style="mix-blend-mode: normal"><tspan x="0" dy="0">7</tspan></text><text transform="translate(211.08718,140.10342) rotate(-0.62833) scale(0.41491,0.41491)" font-size="22" xml:space="preserve" fill="#928f8f" fill-rule="nonzero" stroke="none" stroke-width="1" stroke-linecap="butt" stroke-linejoin="miter" stroke-miterlimit="10" stroke-dasharray="" stroke-dashoffset="0" font-family="Sans Serif" font-weight="400" text-anchor="start" style="mix-blend-mode: normal"><tspan x="0" dy="0">RPM X1000</tspan></text><path d="M337.12241,150.01611l2.01693,7.34197l1.10903,5.2766l0.6328,4.63379l0.80405,6.12483l0.30553,5.8719l-0.11705,6.30943l-0.62437,7.55646l-1.04402,7.49401l-1.36703,6.30208l-1.82831,6.51938l-2.24795,6.45691l-2.28373,5.7367" fill="none" stroke="#cc0000" stroke-width="2" stroke-linecap="round"/><text transform="translate(298.21722,237.22792) rotate(1.19499) scale(1,1)" font-size="22" xml:space="preserve" fill="#cc0000" fill-rule="nonzero" stroke="none" stroke-width="1" stroke-linecap="butt" stroke-linejoin="miter" stroke-miterlimit="10" stroke-dasharray="" stroke-dashoffset="0" font-family="Sans Serif" font-weight="400" text-anchor="start" style="mix-blend-mode: normal"><tspan x="0" dy="0">8</tspan></text><text transform="translate(134.14414,305.12968) scale(0.5,0.5)" font-size="40" xml:space="preserve" fill="#ffffff" fill-rule="nonzero" stroke="none" stroke-width="1" stroke-linecap="butt" stroke-linejoin="miter" stroke-miterlimit="10" stroke-dasharray="" stroke-dashoffset="0" font-family="Sans Serif" font-weight="normal" text-anchor="start" style="mix-blend-mode: normal"><tspan x="0" dy="0">MPH</tspan><tspan x="0" dy="46.15px"> </tspan></text></g></g></svg>